# xmcd
#
# Track frame offsets:
# 150
# 16520
# 31882
# 43597
# 58970
# 72800
# 90285
# 107415
# 125400
# 139710
# 158460
# 175002
# 203659
#
# Disc length: 2760 seconds
#
#
# Revision: 0
# Processed by: cddbd v1.4PL0 Copyright (c) Steve Scherf et al.
# Submitted via: FreeRIP 2.51 
#
DISCID=950ac60d
DTITLE=Sherrié Austin - Love in the Real World
DYEAR=2001
DGENRE=Country
TTITLE0=Never Been Kissed
TTITLE1=Good Love Comin' On
TTITLE2=Little Bird
TTITLE3=That's No Way to Break a Heart
TTITLE4=Sarah
TTITLE5=All the Love a Heart Can Hold
TTITLE6=Dreaming Out Loud
TTITLE7=Heart to Heart
TTITLE8=Love in the Real World
TTITLE9=Heart Hold On
TTITLE10=All That Matters
TTITLE11=Wish
TTITLE12=Bonus
EXTD=
EXTT0=
EXTT1=
EXTT2=
EXTT3=
EXTT4=
EXTT5=
EXTT6=
EXTT7=
EXTT8=
EXTT9=
EXTT10=
EXTT11=
EXTT12=
PLAYORDER=
